<svg width="40" height="40" viewBox="0 0 40 40" fill="none" xmlns="http://www.w3.org/2000/svg">
<path d="M9.14288 31.4287C7.24915 31.4287 5.71431 32.9635 5.71431 34.8572C5.71431 36.751 7.24915 38.2858 9.14288 38.2858C11.0366 38.2858 12.5714 36.751 12.5714 34.8572C12.5714 32.9635 11.0365 31.4287 9.14288 31.4287ZM36.5714 7.42867H8.1383L2.92575 2.21723C2.61601 1.90638 2.18745 1.71436 1.71431 1.71436C0.766863 1.71442 0 2.48122 0 3.42867C0 3.90181 0.192026 4.33037 0.502876 4.64011L4.57144 8.70985V25.7144C4.57144 27.6081 6.10628 29.143 8 29.143H29.7143C31.0948 29.143 32.2858 28.3259 32.8297 27.1498L39.6869 12.2927C39.8869 11.8562 40 11.3693 40 10.8573C40 8.96357 38.464 7.42867 36.5714 7.42867ZM29.7143 25.7144H8V16.5715H33.9348L29.7143 25.7144ZM35.5177 13.143H8V10.8572H36.5714L36.5737 10.8549L35.5177 13.143ZM27.4286 31.4287C25.536 31.4287 24 32.9635 24 34.8572C24 36.751 25.536 38.2858 27.4286 38.2858C29.3211 38.2858 30.8571 36.751 30.8571 34.8572C30.8571 32.9635 29.3211 31.4287 27.4286 31.4287Z" fill="#02799A"/>
</svg>
