<svg width="25" height="25" viewBox="0 0 25 25" fill="none" xmlns="http://www.w3.org/2000/svg">
<path d="M11.9964 5.82935C10.3613 5.82935 8.79306 6.47895 7.63686 7.63515C6.48066 8.79135 5.83105 10.3595 5.83105 11.9946C5.83105 13.6298 6.48066 15.198 7.63686 16.3542C8.79306 17.5104 10.3613 18.16 11.9964 18.16C13.6316 18.16 15.1998 17.5104 16.356 16.3542C17.5122 15.198 18.1618 13.6298 18.1618 11.9946C18.1618 10.3595 17.5122 8.79135 16.356 7.63515C15.1998 6.47895 13.6316 5.82935 11.9964 5.82935ZM11.9964 15.9986C10.9341 15.9986 9.91535 15.5766 9.16415 14.8255C8.41305 14.0743 7.99105 13.0556 7.99105 11.9933C7.99105 10.931 8.41305 9.91225 9.16415 9.16115C9.91535 8.41005 10.9341 7.98805 11.9964 7.98805C13.0587 7.98805 14.0775 8.41005 14.8286 9.16115C15.5798 9.91225 16.0018 10.931 16.0018 11.9933C16.0018 13.0556 15.5798 14.0743 14.8286 14.8255C14.0775 15.5766 13.0587 15.9986 11.9964 15.9986Z" fill="white"/>
<path d="M18.4056 7.04023C19.1995 7.04023 19.843 6.39663 19.843 5.60283C19.843 4.80903 19.1995 4.16553 18.4056 4.16553C17.6118 4.16553 16.9683 4.80903 16.9683 5.60283C16.9683 6.39663 17.6118 7.04023 18.4056 7.04023Z" fill="white"/>
<path d="M23.3747 4.1413C23.066 3.3442 22.5943 2.6203 21.9898 2.016C21.3853 1.4117 20.6613 0.9403 19.864 0.632C18.9312 0.2818 17.9456 0.0924024 16.9494 0.0720024C15.6654 0.0160024 15.2587 0 12.0027 0C8.74666 0 8.32936 2.41399e-06 7.05596 0.0720024C6.06056 0.0914024 5.07566 0.2808 4.14396 0.632C3.34656 0.94 2.62236 1.4113 2.01776 2.0156C1.41321 2.6199 0.941639 3.344 0.633329 4.1413C0.283069 5.0741 0.0941498 6.0598 0.0746698 7.056C0.0173298 8.3386 0 8.7453 0 12.0026C0 15.2586 -1.63913e-07 15.6733 0.0746698 16.9493C0.0946698 17.9466 0.282669 18.9306 0.633329 19.8653C0.942499 20.6623 1.41453 21.3861 2.01926 21.9903C2.62396 22.5946 3.34806 23.0661 4.14536 23.3746C5.07526 23.7389 6.06046 23.9418 7.05866 23.9746C8.34266 24.0306 8.74936 24.048 12.0054 24.048C15.2614 24.048 15.6787 24.048 16.952 23.9746C17.9482 23.9544 18.9337 23.7655 19.8667 23.416C20.6637 23.1069 21.3875 22.6351 21.992 22.0306C22.5965 21.4261 23.0683 20.7023 23.3774 19.9053C23.728 18.972 23.916 17.988 23.936 16.9906C23.9934 15.708 24.0107 15.3013 24.0107 12.044C24.0107 8.7866 24.0107 8.3733 23.936 7.0973C23.9205 6.087 23.7306 5.087 23.3747 4.1413ZM21.7507 16.8506C21.7421 17.619 21.6019 18.3803 21.336 19.1013C21.1358 19.6198 20.8293 20.0906 20.4361 20.4835C20.043 20.8764 19.572 21.1827 19.0534 21.3826C18.3403 21.6472 17.5872 21.7875 16.8267 21.7973C15.56 21.856 15.2027 21.8706 11.9547 21.8706C8.70396 21.8706 8.37196 21.8706 7.08136 21.7973C6.32126 21.788 5.56846 21.6477 4.85596 21.3826C4.33556 21.1839 3.86266 20.8782 3.46786 20.4852C3.07306 20.0923 2.76516 19.6208 2.56396 19.1013C2.30196 18.388 2.16176 17.6358 2.14936 16.876C2.09196 15.6093 2.07866 15.252 2.07866 12.004C2.07866 8.7546 2.07866 8.4226 2.14936 7.1306C2.15796 6.3627 2.29816 5.6019 2.56396 4.8813C2.97066 3.8293 3.80396 3.0013 4.85596 2.5986C5.56876 2.3348 6.32136 2.1946 7.08136 2.184C8.34936 2.1266 8.70536 2.1106 11.9547 2.1106C15.204 2.1106 15.5374 2.1106 16.8267 2.184C17.5873 2.1931 18.3405 2.3334 19.0534 2.5986C19.5719 2.799 20.0429 3.1056 20.436 3.4987C20.8291 3.8918 21.1357 4.3627 21.336 4.8813C21.5981 5.5946 21.7383 6.3468 21.7507 7.1066C21.808 8.3746 21.8227 8.7306 21.8227 11.98C21.8227 15.228 21.8227 15.5773 21.7654 16.852H21.7507V16.8506Z" fill="white"/>
</svg>
