<svg width="40" height="40" viewBox="0 0 40 40" fill="none" xmlns="http://www.w3.org/2000/svg">
<path d="M20.0002 3.33325C15.5974 3.3894 11.3906 5.16338 8.27713 8.2769C5.16361 11.3904 3.38964 15.5971 3.3335 19.9999C3.35407 22.5647 3.96636 25.0903 5.12267 27.3798C6.27899 29.6693 7.94814 31.6611 10.0002 33.1999V33.3332H10.1668C12.9888 35.4957 16.4449 36.6677 20.0002 36.6677C23.5554 36.6677 27.0115 35.4957 29.8335 33.3332H30.0002V33.1999C32.0522 31.6611 33.7214 29.6693 34.8776 27.3798C36.034 25.0903 36.6462 22.5647 36.6668 19.9999C36.6107 15.5971 34.8367 11.3904 31.7231 8.2769C28.6096 5.16338 24.403 3.3894 20.0002 3.33325ZM13.4502 31.5499C13.6935 30.4357 14.3104 29.438 15.1987 28.7226C16.0869 28.0072 17.193 27.617 18.3335 27.6166H21.6668C22.8074 27.617 23.9135 28.0072 24.8017 28.7226C25.69 29.438 26.3069 30.4357 26.5502 31.5499C24.5649 32.7179 22.3035 33.3339 20.0002 33.3339C17.6968 33.3339 15.4354 32.7179 13.4502 31.5499ZM29.3502 29.3999C28.7162 27.8849 27.6487 26.5909 26.2817 25.6805C24.9147 24.7701 23.3091 24.284 21.6668 24.2832H18.3335C16.6911 24.284 15.0856 24.7701 13.7187 25.6805C12.3516 26.5909 11.2841 27.8849 10.6502 29.3999C9.40126 28.1716 8.40666 26.7092 7.72318 25.0963C7.0397 23.4833 6.68074 21.7516 6.66683 19.9999C6.71005 16.4771 8.1287 13.1109 10.6199 10.6196C13.111 8.12845 16.4774 6.70982 20.0002 6.66659C23.5229 6.70982 26.8893 8.12845 29.3804 10.6196C31.8716 13.1109 33.2903 16.4771 33.3335 19.9999C33.3196 21.7516 32.9607 23.4833 32.2771 25.0963C31.5936 26.7092 30.599 28.1716 29.3502 29.3999Z" fill="#02799A"/>
<path d="M20.0003 10.0001C19.1192 9.97953 18.2431 10.1379 17.425 10.4657C16.6068 10.7935 15.8637 11.2838 15.2405 11.907C14.6173 12.5302 14.127 13.2733 13.7992 14.0915C13.4714 14.9096 13.3131 15.7856 13.3335 16.6668C13.3131 17.5478 13.4714 18.4239 13.7992 19.242C14.127 20.0602 14.6173 20.8032 15.2405 21.4265C15.8637 22.0497 16.6068 22.5399 17.425 22.8677C18.2431 23.1955 19.1192 23.3539 20.0003 23.3333C20.8813 23.3539 21.7574 23.1955 22.5755 22.8677C23.3937 22.5399 24.1368 22.0497 24.76 21.4265C25.3832 20.8032 25.8735 20.0602 26.2013 19.242C26.5291 18.4239 26.6874 17.5478 26.667 16.6668C26.6874 15.7856 26.5291 14.9096 26.2013 14.0915C25.8735 13.2733 25.3832 12.5302 24.76 11.907C24.1368 11.2838 23.3937 10.7935 22.5755 10.4657C21.7574 10.1379 20.8813 9.97953 20.0003 10.0001ZM20.0003 20C19.5568 20.0215 19.1138 19.9499 18.6997 19.79C18.2855 19.63 17.9095 19.3853 17.5955 19.0713C17.2817 18.7575 17.0368 18.3813 16.877 17.9672C16.7171 17.5531 16.6454 17.1102 16.667 16.6668C16.6454 16.2233 16.7171 15.7803 16.877 15.3662C17.0368 14.952 17.2817 14.5759 17.5955 14.262C17.9095 13.9482 18.2855 13.7033 18.6997 13.5435C19.1138 13.3835 19.5568 13.3119 20.0003 13.3333C20.4437 13.3119 20.8867 13.3835 21.3008 13.5435C21.715 13.7033 22.091 13.9482 22.405 14.262C22.7188 14.5759 22.9637 14.952 23.1235 15.3662C23.2834 15.7803 23.3551 16.2233 23.3335 16.6668C23.3551 17.1102 23.2834 17.5531 23.1235 17.9672C22.9637 18.3813 22.7188 18.7575 22.405 19.0713C22.091 19.3853 21.715 19.63 21.3008 19.79C20.8867 19.9499 20.4437 20.0215 20.0003 20Z" fill="#02799A"/>
</svg>
