<svg width="41" height="40" viewBox="0 0 41 40" fill="none" xmlns="http://www.w3.org/2000/svg">
<path d="M17.3816 20H40.0001" stroke="#02799A" stroke-width="2" stroke-linecap="round" stroke-linejoin="round"/>
<path d="M31.318 32.8571V37.1429H3.47977V2.85714H31.318V7.14286H34.7977V1.42857C34.7977 1.04969 34.6144 0.686328 34.2881 0.418419C33.9618 0.15051 33.5193 0 33.0579 0H1.73989C1.27844 0 0.835894 0.15051 0.509601 0.418419C0.183309 0.686328 0 1.04969 0 1.42857V38.5714C0 38.9503 0.183309 39.3137 0.509601 39.5816C0.835894 39.8495 1.27844 40 1.73989 40H33.0579C33.5193 40 33.9618 39.8495 34.2881 39.5816C34.6144 39.3137 34.7977 38.9503 34.7977 38.5714V32.8571H31.318Z" fill="#02799A"/>
<path d="M40.0001 20L33.0405 25.7143" stroke="#02799A" stroke-width="2" stroke-linecap="round" stroke-linejoin="round"/>
<path d="M40.0001 19.9999L33.0405 14.2856" stroke="#02799A" stroke-width="2" stroke-linecap="round" stroke-linejoin="round"/>
<path d="M33.0405 8.70016V5.84302" stroke="#02799A" stroke-width="2" stroke-linecap="round" stroke-linejoin="round"/>
<path d="M33.0405 34.2856V31.4285" stroke="#02799A" stroke-width="2" stroke-linecap="round" stroke-linejoin="round"/>
</svg>
