<svg width="24" height="24" viewBox="0 0 24 24" fill="none" xmlns="http://www.w3.org/2000/svg">
<path d="M21.6 0H2.39998C1.07636 0 0 1.34474 0 2.99973V21.0003C0 22.6553 1.07636 24 2.39998 24H21.6C22.9236 24 24 22.6553 24 21.0003V2.99973C24 1.34474 22.9236 0 21.6 0ZM21.6 2.99973V3.76634L12 13.1012L2.39998 3.76741V2.99973H21.6ZM2.39998 21.0003V7.56551L11.2632 16.1835C11.4733 16.39 11.7328 16.5023 12 16.5023C12.2672 16.5023 12.5267 16.39 12.7368 16.1835L21.6 7.56551L21.6024 21.0003H2.39998Z" fill="white"/>
</svg>
