<svg width="24" height="24" viewBox="0 0 24 24" fill="none" xmlns="http://www.w3.org/2000/svg">
<path d="M23.5591 18.7999L18.0827 13.8207C17.8237 13.5849 17.4836 13.4596 17.134 13.4704C16.7844 13.4812 16.4526 13.628 16.2087 13.8786L12.9848 17.194C12.2088 17.0458 10.6488 16.5595 9.04288 14.9577C7.437 13.3505 6.95065 11.7864 6.8065 11.0158L10.1193 7.79065C10.3704 7.5468 10.5169 7.2154 10.5278 6.86513C10.5386 6.51621 10.4129 6.17536 10.1772 5.9167L5.19927 0.441737C4.96351 0.18173 4.63601 0.0241034 4.286 0.00254841C3.93613 -0.0190066 3.59151 0.0968494 3.3253 0.324524L0.401846 2.83165C0.168912 3.06606 0.0298838 3.37592 0.0111575 3.70598C-0.00905066 4.04277 -0.394354 12.0208 5.79205 18.2098C11.189 23.6053 17.9493 24 19.8112 24C20.0833 24 20.2503 23.9919 20.2948 23.9892C20.6242 23.9704 20.9351 23.8316 21.1678 23.5972L23.6736 20.6724C23.9026 20.4071 24.0189 20.0622 23.9975 19.7132C23.9761 19.363 23.8187 19.0356 23.5591 18.7999Z" fill="white"/>
</svg>
