<svg width="24" height="24" viewBox="0 0 24 24" fill="none" xmlns="http://www.w3.org/2000/svg">
<path d="M21.5343 5.98139C21.5501 6.24415 21.5501 6.50579 21.5501 6.76742C21.5501 14.7742 16.6004 24 7.55464 24C4.76772 24 2.17871 23.0065 0 21.28C0.395684 21.3363 0.776714 21.3555 1.18828 21.3555C3.40243 21.3623 5.55378 20.4511 7.29571 18.7674C6.26922 18.7449 5.27405 18.3276 4.44934 17.5754C3.62454 16.8221 3.01134 15.7711 2.6953 14.5678C2.99939 14.6242 3.3047 14.6614 3.62463 14.6614C4.06557 14.6614 4.50888 14.5859 4.92041 14.455C3.80636 14.1787 2.80457 13.4345 2.08543 12.3518C1.36629 11.2681 0.974181 9.91148 0.975783 8.51199V8.43643C1.63159 8.88638 2.39242 9.16718 3.19845 9.2044C2.52321 8.65182 1.96954 7.90302 1.58682 7.02228C1.20411 6.14266 1.00425 5.15929 1.00509 4.16127C1.00509 3.03694 1.24812 2.00508 1.67433 1.1063C2.91041 2.9783 4.45209 4.50974 6.19951 5.60137C7.94685 6.69299 9.86106 7.32113 11.818 7.44405C11.7423 6.99297 11.6959 6.52496 11.6959 6.05583C11.6956 5.2608 11.8226 4.47252 12.0697 3.73838C12.3168 3.00311 12.6791 2.33551 13.136 1.77278C13.5929 1.21005 14.1353 0.764601 14.7322 0.460118C15.3292 0.155636 15.969 -0.00112167 16.6151 6.04158e-06C18.0318 6.04158e-06 19.3104 0.730763 20.2092 1.91261C21.3105 1.64985 22.3666 1.1548 23.3307 0.448847C22.9636 1.84834 22.1947 3.03581 21.1679 3.78687C22.1447 3.65041 23.0992 3.33353 24 2.84861C23.3272 4.05639 22.4936 5.11531 21.5343 5.98139Z" fill="white"/>
</svg>
